<svg width="500" height="500" viewBox="0 0 500 500" fill="none" xmlns="http://www.w3.org/2000/svg">
<rect width="500" height="500" rx="250" fill="#AE5F48"/>
<path opacity="0.9" d="M275.501 98.3615C274.405 98.6828 272.083 100.236 272.083 100.611C272.083 100.718 272.857 101.2 273.792 101.735C275.469 102.726 275.469 102.726 276.243 102.217C277.919 101.092 280.628 102.11 280.563 103.877C280.37 109.339 267.795 170.465 266.699 171.349C266.57 171.456 264.119 172.179 261.282 172.928C258.444 173.705 253.575 175.177 250.48 176.195C243.709 178.444 222.492 187.092 214.85 190.733C168.839 212.662 134.241 249.102 122.472 288.059C119.441 298.072 118.28 304.9 118.054 313.548C117.861 320.59 118.151 324.017 119.441 329.291C124.729 351.247 143.946 366.267 166.807 366.321C173.772 366.347 178.673 365.383 185.605 362.626C198.051 357.672 207.918 349.051 215.753 336.333C219.107 330.871 221.009 326.962 224.233 319.064C240.097 279.893 256.703 228.86 268.214 183.933C269.246 179.917 270.245 176.516 270.471 176.409C271.051 176.115 282.079 173.571 286.109 172.821C291.655 171.777 297.975 170.84 303.553 170.278C311.292 169.475 313.033 169.367 313.033 169.689C313.033 169.823 312.291 172.58 311.421 175.793C306.649 192.822 295.073 240.909 282.885 294.083C275.985 324.204 270.89 338.689 262.088 353.335C255.671 363.991 249.674 371.14 241 378.53C233.81 384.608 226.587 388.999 218.043 392.506C199.696 400.003 178.866 400.324 161.487 393.39C155.554 391.033 151.91 388.865 147.042 384.795L142.721 381.234L141.141 382.198C140.27 382.707 139.561 383.242 139.561 383.322C139.593 383.724 144.107 387.794 146.365 389.454C160.455 399.815 181.768 404.233 201.63 400.913C216.366 398.45 229.36 392.72 242.097 383.055C255.51 372.854 266.408 359.225 274.405 342.679C280.66 329.747 284.529 317.993 291.623 290.522C303.586 244.041 317.192 187.761 320.481 171.215L320.9 169.1L330.283 169.26C342.794 169.448 352.338 170.358 363.237 172.42C365.59 172.875 367.654 173.169 367.783 173.089C368.138 172.928 368.944 169.983 368.686 169.796C368.396 169.555 358.787 167.868 353.66 167.199C344.632 165.967 330.767 164.896 324.286 164.896H321.836L323.029 159.032C325.673 146.368 327.575 139.996 330.445 133.945C334.959 124.493 342.278 117.559 351.887 113.623C357.207 111.454 360.27 110.785 365.784 110.624C370.814 110.464 373.78 110.892 377.359 112.284C378.359 112.686 379.23 112.954 379.262 112.927C379.326 112.873 379.842 112.15 380.39 111.32L381.39 109.821L379.068 108.937C371.878 106.287 363.978 106.153 355.369 108.536C348.695 110.383 343.407 113.141 337.99 117.639C328.091 125.805 321.481 138.416 315.451 160.585C314.839 162.861 314.161 164.816 313.936 164.95C313.71 165.057 312.549 165.164 311.389 165.164C303.65 165.164 286.077 167.333 275.179 169.608C273.438 169.983 271.922 170.224 271.858 170.144C271.761 170.064 272.631 165.806 273.824 160.692C278.468 140.397 284.981 107.17 284.981 103.877C284.981 101.467 282.82 99.0308 280.015 98.3615C278.048 97.8795 277.146 97.8795 275.501 98.3615ZM264.635 180.398C260.314 197.963 252.93 223.773 246.965 242.274C238.937 267.201 229.07 293.467 218.72 317.645C209.111 340.055 197.793 352.157 180.704 358.208C173.482 360.778 165.517 361.18 158.069 359.386C144.269 356.093 132.435 345.088 128.437 331.969C124.503 319.01 125.535 304.686 131.694 286.64C143.785 251.056 177.577 216.972 222.17 195.339C229.296 191.885 246.353 184.415 251.77 182.407C255.8 180.907 264.345 178.042 264.861 178.016C265.119 178.016 265.054 178.765 264.635 180.398Z" fill="#F8F1E4"/>
</svg>
