<svg xmlns="http://www.w3.org/2000/svg" width="24" height="24" viewBox="0 0 24 24" fill="none">
  <g opacity="0.66">
    <path d="M18.5626 6V15.75C18.5626 15.8992 18.5034 16.0423 18.3979 16.1477C18.2924 16.2532 18.1493 16.3125 18.0001 16.3125C17.8509 16.3125 17.7079 16.2532 17.6024 16.1477C17.4969 16.0423 17.4376 15.8992 17.4376 15.75V7.3575L6.39763 18.3975C6.291 18.4969 6.14996 18.551 6.00424 18.5484C5.85851 18.5458 5.71947 18.4868 5.61641 18.3837C5.51335 18.2807 5.45432 18.1416 5.45175 17.9959C5.44918 17.8502 5.50327 17.7091 5.60263 17.6025L16.6426 6.5625H8.25013C8.10094 6.5625 7.95787 6.50324 7.85238 6.39775C7.74689 6.29226 7.68763 6.14918 7.68763 6C7.68763 5.85082 7.74689 5.70774 7.85238 5.60225C7.95787 5.49676 8.10094 5.4375 8.25013 5.4375H18.0001C18.1493 5.4375 18.2924 5.49676 18.3979 5.60225C18.5034 5.70774 18.5626 5.85082 18.5626 6Z" fill="#331A17"/>
  </g>
</svg>