<svg xmlns="http://www.w3.org/2000/svg" width="624" height="537" viewBox="0 0 624 537" fill="none">
  <g style="mix-blend-mode:soft-light" opacity="0.2">
    <path d="M373.138 0.876892C370.54 1.65637 365.04 5.42371 365.04 6.33307C365.04 6.5929 366.874 7.76208 369.089 9.06122C373.061 11.4645 373.061 11.4645 374.895 10.2304C378.867 7.50226 385.284 9.97058 385.131 14.2576C384.672 27.5084 354.881 175.8 352.283 177.944C351.978 178.203 346.172 179.957 339.45 181.776C332.728 183.66 321.193 187.232 313.86 189.701C297.818 195.157 247.554 216.137 229.45 224.971C120.442 278.169 38.4764 366.572 10.5943 461.082C3.41376 485.375 0.663744 501.938 0.129019 522.919C-0.329317 540.002 0.358187 548.316 3.41376 561.112C15.9416 614.375 61.4696 650.815 115.63 650.945C132.13 651.01 143.741 648.671 160.164 641.981C189.651 629.964 213.026 609.049 231.588 578.195C239.533 564.944 244.04 555.461 251.679 536.299C289.262 441.271 328.603 317.467 355.874 208.472C358.318 198.729 360.686 190.48 361.221 190.22C362.596 189.506 388.721 183.335 398.27 181.516C411.409 178.983 426.381 176.71 439.596 175.346C457.93 173.397 462.055 173.137 462.055 173.917C462.055 174.241 460.298 180.932 458.235 188.726C446.93 230.037 419.506 346.696 390.631 475.697C374.284 548.771 362.214 583.911 341.36 619.442C326.158 645.294 311.95 662.637 291.401 680.564C274.366 695.309 257.255 705.961 237.012 714.47C193.547 732.658 144.199 733.437 103.025 716.614C88.9697 710.898 80.3377 705.637 68.8029 695.763L58.5668 687.124L54.8237 689.463C52.7612 690.697 51.0806 691.996 51.0806 692.191C51.157 693.165 61.8515 703.038 67.1988 707.066C100.581 732.203 151.074 742.921 198.13 734.866C233.04 728.89 263.825 714.99 293.998 691.541C325.776 666.794 351.596 633.732 370.54 593.59C385.36 562.216 394.527 533.701 411.332 467.058C439.673 354.296 471.909 217.761 479.701 177.619L480.694 172.487L502.923 172.877C532.562 173.332 555.173 175.54 580.993 180.542C586.569 181.646 591.458 182.361 591.764 182.166C592.604 181.776 594.514 174.631 593.903 174.176C593.215 173.592 570.451 169.5 558.305 167.876C536.916 164.888 504.069 162.29 488.715 162.29H482.909L485.735 148.065C491.999 117.341 496.506 101.882 503.305 87.2018C513.999 64.2728 531.34 47.4495 554.104 37.9011C566.708 32.6398 573.965 31.0159 587.028 30.6262C598.944 30.2365 605.972 31.2758 614.451 34.6534C616.819 35.6277 618.882 36.2773 618.958 36.2123C619.111 36.0824 620.333 34.3286 621.632 32.315L624 28.6776L618.5 26.5341C601.465 20.1035 582.75 19.7787 562.354 25.5597C546.541 30.0416 534.013 36.7319 521.18 47.6443C497.729 67.4556 482.069 98.0493 467.784 151.832C466.333 157.353 464.728 162.095 464.194 162.419C463.659 162.679 460.909 162.939 458.159 162.939C439.826 162.939 398.193 168.201 372.374 173.722C368.249 174.631 364.659 175.216 364.506 175.021C364.277 174.826 366.339 164.498 369.165 152.092C380.166 102.856 395.596 22.247 395.596 14.2576C395.596 8.41162 390.478 2.50073 383.832 0.876892C379.172 -0.292297 377.034 -0.292297 373.138 0.876892ZM347.395 199.898C337.158 242.509 319.665 305.125 305.533 350.009C286.512 410.482 263.137 474.203 238.616 532.857C215.852 587.224 189.04 616.584 148.553 631.263C131.442 637.499 112.574 638.473 94.9281 634.121C62.2335 626.132 34.1986 599.435 24.7264 567.608C15.4069 536.169 17.8513 501.419 32.4417 457.639C61.0876 371.314 141.144 288.627 246.79 236.143C263.672 227.764 304.082 209.642 316.915 204.77C326.464 201.133 346.707 194.182 347.929 194.117C348.54 194.117 348.388 195.936 347.395 199.898Z" fill="#F8F1E4"/>
  </g>
</svg>