<svg xmlns="http://www.w3.org/2000/svg" width="414" height="524" viewBox="0 0 414 524" fill="none">
  <g style="mix-blend-mode:soft-light" opacity="0.2">
    <path d="M261.368 -5.01898C259.061 -4.34302 254.177 -1.07581 254.177 -0.28717C254.177 -0.0618286 255.805 0.952148 257.773 2.07874C261.3 4.16302 261.3 4.16302 262.928 3.09271C266.456 0.726807 272.154 2.86737 272.019 6.58521C271.612 18.0768 245.155 146.681 242.848 148.54C242.577 148.765 237.421 150.286 231.451 151.863C225.482 153.497 215.238 156.595 208.726 158.736C194.48 163.467 149.842 181.662 133.765 189.323C36.9596 235.458 -35.8307 312.125 -60.5916 394.087C-66.9684 415.155 -69.4106 429.519 -69.8854 447.714C-70.2925 462.529 -69.6819 469.739 -66.9684 480.837C-55.8429 527.028 -15.4114 558.63 32.6858 558.743C47.3388 558.799 57.6502 556.771 72.2354 550.969C98.4209 540.548 119.179 522.409 135.664 495.652C142.719 484.16 146.722 475.936 153.505 459.318C186.882 376.906 221.818 269.539 246.037 175.015C248.207 166.566 250.31 159.411 250.785 159.186C252.006 158.566 275.207 153.215 283.687 151.638C295.355 149.441 308.651 147.469 320.387 146.286C336.668 144.596 340.332 144.371 340.332 145.047C340.332 145.329 338.771 151.131 336.94 157.891C326.9 193.717 302.546 294.888 276.903 406.761C262.386 470.134 251.667 500.609 233.147 531.422C219.648 553.842 207.03 568.882 188.781 584.43C173.653 597.217 158.458 606.455 140.481 613.834C101.881 629.607 58.0572 630.283 21.4925 615.693C9.01028 610.736 1.34457 606.173 -8.89898 597.611L-17.9893 590.119L-21.3133 592.147C-23.145 593.217 -24.6374 594.344 -24.6374 594.513C-24.5696 595.358 -15.0722 603.92 -10.3236 607.413C19.3217 629.213 64.1627 638.507 105.951 631.522C136.953 626.34 164.292 614.285 191.088 593.949C219.308 572.487 242.238 543.815 259.061 509.002C272.222 481.794 280.363 457.065 295.287 399.269C320.455 301.478 349.083 183.071 356.002 148.258L356.884 143.808L376.625 144.146C402.946 144.54 423.026 146.455 445.955 150.793C450.908 151.75 455.249 152.37 455.521 152.201C456.267 151.863 457.963 145.667 457.42 145.272C456.81 144.765 436.594 141.217 425.808 139.808C406.813 137.217 377.642 134.964 364.007 134.964H358.851L361.361 122.627C366.924 95.9827 370.927 82.5759 376.964 69.845C386.461 49.9601 401.861 35.3704 422.076 27.0897C433.27 22.5269 439.714 21.1187 451.315 20.7806C461.897 20.4427 468.138 21.344 475.669 24.2732C477.772 25.1182 479.603 25.6815 479.671 25.6251C479.807 25.5125 480.892 23.9915 482.045 22.2453L484.148 19.0908L479.264 17.2318C464.136 11.655 447.516 11.3734 429.403 16.3868C415.36 20.2737 404.235 26.0758 392.838 35.5394C372.012 52.7204 358.105 79.2523 345.419 125.894C344.13 130.683 342.706 134.795 342.231 135.076C341.756 135.302 339.314 135.527 336.872 135.527C320.591 135.527 283.619 140.09 260.69 144.878C257.026 145.667 253.838 146.174 253.702 146.005C253.499 145.836 255.33 136.879 257.84 126.12C267.609 83.4208 281.312 13.514 281.312 6.58521C281.312 1.51544 276.767 -3.61072 270.865 -5.01898C266.727 -6.03296 264.828 -6.03296 261.368 -5.01898ZM238.507 167.579C229.416 204.533 213.881 258.836 201.331 297.761C184.44 350.205 163.681 405.466 141.905 456.333C121.689 503.482 97.8782 528.943 61.924 541.674C46.7283 547.082 29.9723 547.927 14.3017 544.153C-14.7331 537.224 -39.6296 514.072 -48.0416 486.47C-56.3178 459.206 -54.147 429.068 -41.1899 391.101C-15.7506 316.237 55.3437 244.528 149.164 199.012C164.156 191.746 200.042 176.029 211.439 171.804C219.919 168.65 237.896 162.622 238.981 162.566C239.524 162.566 239.388 164.143 238.507 167.579Z" fill="#F8F1E4"/>
  </g>
</svg>