<svg xmlns="http://www.w3.org/2000/svg" width="20" height="20" viewBox="0 0 20 20" fill="none">
  <path d="M9.1665 14.1666H10.8332V9.16663H9.1665V14.1666ZM9.99984 7.49996C10.2359 7.49996 10.4339 7.4201 10.5936 7.26038C10.7533 7.10065 10.8332 6.90274 10.8332 6.66663C10.8332 6.43052 10.7533 6.2326 10.5936 6.07288C10.4339 5.91315 10.2359 5.83329 9.99984 5.83329C9.76373 5.83329 9.56581 5.91315 9.40609 6.07288C9.24637 6.2326 9.1665 6.43052 9.1665 6.66663C9.1665 6.90274 9.24637 7.10065 9.40609 7.26038C9.56581 7.4201 9.76373 7.49996 9.99984 7.49996ZM9.99984 18.3333C8.84706 18.3333 7.76373 18.1145 6.74984 17.677C5.73595 17.2395 4.854 16.6458 4.104 15.8958C3.354 15.1458 2.76025 14.2638 2.32275 13.25C1.88525 12.2361 1.6665 11.1527 1.6665 9.99996C1.6665 8.84718 1.88525 7.76385 2.32275 6.74996C2.76025 5.73607 3.354 4.85413 4.104 4.10413C4.854 3.35413 5.73595 2.76038 6.74984 2.32288C7.76373 1.88538 8.84706 1.66663 9.99984 1.66663C11.1526 1.66663 12.2359 1.88538 13.2498 2.32288C14.2637 2.76038 15.1457 3.35413 15.8957 4.10413C16.6457 4.85413 17.2394 5.73607 17.6769 6.74996C18.1144 7.76385 18.3332 8.84718 18.3332 9.99996C18.3332 11.1527 18.1144 12.2361 17.6769 13.25C17.2394 14.2638 16.6457 15.1458 15.8957 15.8958C15.1457 16.6458 14.2637 17.2395 13.2498 17.677C12.2359 18.1145 11.1526 18.3333 9.99984 18.3333ZM9.99984 16.6666C11.8609 16.6666 13.4373 16.0208 14.729 14.7291C16.0207 13.4375 16.6665 11.8611 16.6665 9.99996C16.6665 8.13885 16.0207 6.56246 14.729 5.27079C13.4373 3.97913 11.8609 3.33329 9.99984 3.33329C8.13873 3.33329 6.56234 3.97913 5.27067 5.27079C3.979 6.56246 3.33317 8.13885 3.33317 9.99996C3.33317 11.8611 3.979 13.4375 5.27067 14.7291C6.56234 16.0208 8.13873 16.6666 9.99984 16.6666Z" fill="#753F37"/>
</svg>