<svg xmlns="http://www.w3.org/2000/svg" width="240" height="148" viewBox="0 0 240 148" fill="none">
  <path d="M61.12 0.228266C60.7508 0.290038 60.4185 0.784215 60.4185 1.31546C60.4185 2.1432 61.9816 4.21875 62.6217 4.21875C63.0402 4.21875 63.3725 3.65045 63.3725 2.92153C63.3725 1.99495 62.6586 0.561836 62.0678 0.314747C61.8462 0.215911 61.6124 0.154139 61.5631 0.154139C61.5139 0.166493 61.317 0.203557 61.12 0.228266Z" fill="#F8F1E4"/>
  <path d="M60.1233 7.73952C59.7048 7.88776 58.8186 8.60432 58.8186 8.77728C58.8186 8.82671 59.114 9.04909 59.4709 9.29617C60.111 9.75328 60.111 9.75328 60.4064 9.51855C61.0464 8.99966 62.0803 9.46913 62.0557 10.2845C61.9819 12.8048 57.1815 41.01 56.7631 41.4177C56.7138 41.4671 55.7784 41.8007 54.6952 42.1466C53.6121 42.5049 51.7535 43.1844 50.5719 43.6539C47.9871 44.6917 39.8881 48.6821 36.971 50.3623C19.4067 60.4806 6.19967 77.295 1.70706 95.2707C0.550055 99.8913 0.106948 103.042 0.0207887 107.032C-0.0530624 110.281 0.0577143 111.863 0.550055 114.297C2.56865 124.427 9.90453 131.358 18.6313 131.383C21.2899 131.395 23.1608 130.95 25.8071 129.678C30.5582 127.392 34.3246 123.414 37.3156 117.546C38.5957 115.025 39.3219 113.222 40.5527 109.577C46.6085 91.5026 52.9474 67.9551 57.3416 47.2243C57.7354 45.3711 58.117 43.8021 58.2032 43.7527C58.4247 43.6168 62.6342 42.4431 64.1728 42.0972C66.2898 41.6154 68.7023 41.183 70.8317 40.9235C73.7857 40.5529 74.4504 40.5035 74.4504 40.6517C74.4504 40.7135 74.1673 41.986 73.835 43.4686C72.0133 51.326 67.5946 73.5146 62.9419 98.0505C60.3079 111.949 58.3632 118.633 55.0029 125.391C52.5535 130.308 50.2642 133.607 46.9532 137.016C44.2084 139.821 41.4513 141.847 38.1895 143.465C31.186 146.925 23.2347 147.073 16.6004 143.873C14.3356 142.786 12.9447 141.785 11.0861 139.907L9.4368 138.264L8.83369 138.709C8.50136 138.944 8.23057 139.191 8.23057 139.228C8.24288 139.413 9.96607 141.291 10.8277 142.057C16.2065 146.838 24.3424 148.877 31.9245 147.345C37.5495 146.208 42.5098 143.564 47.3717 139.104C52.492 134.397 56.6523 128.109 59.7048 120.474C62.0926 114.507 63.5697 109.083 66.2775 96.4073C70.844 74.96 76.0382 48.991 77.2937 41.3559L77.4537 40.38L81.0355 40.4541C85.8112 40.5406 89.4545 40.9606 93.6148 41.9119C94.5133 42.1219 95.301 42.2578 95.3503 42.2208C95.4857 42.1466 95.7934 40.7876 95.6949 40.7012C95.5841 40.59 91.9162 39.8116 89.9591 39.5028C86.5127 38.9345 81.2201 38.4403 78.7461 38.4403H77.8106L78.266 35.7347C79.2753 29.891 80.0015 26.9507 81.097 24.1586C82.8202 19.7974 85.6142 16.5976 89.2822 14.7815C91.3131 13.7808 92.4824 13.472 94.5871 13.3978C96.5073 13.3237 97.6396 13.5214 99.0059 14.1638C99.3875 14.3491 99.7198 14.4727 99.7321 14.4603C99.7567 14.4356 99.9537 14.1021 100.163 13.7191L100.544 13.0272L99.6582 12.6195C96.9134 11.3964 93.8979 11.3347 90.6115 12.4342C88.0636 13.2867 86.045 14.5592 83.9772 16.6347C80.1985 20.4028 77.6752 26.2218 75.3735 36.4512C75.1397 37.5014 74.8812 38.4032 74.795 38.465C74.7089 38.5144 74.2658 38.5638 73.8227 38.5638C70.8686 38.5638 64.1605 39.5646 60.0002 40.6147C59.3355 40.7876 58.757 40.8988 58.7324 40.8618C58.6955 40.8247 59.0278 38.8604 59.4832 36.5007C61.2557 27.136 63.742 11.8041 63.742 10.2845C63.742 9.17262 62.9173 8.04837 61.8465 7.73952C61.0957 7.51714 60.751 7.51714 60.1233 7.73952ZM55.9753 45.5935C54.326 53.698 51.5073 65.6077 49.2302 74.1446C46.1654 85.6466 42.399 97.7663 38.448 108.922C34.78 119.263 30.4598 124.847 23.9362 127.639C21.1791 128.825 18.1389 129.011 15.2957 128.183C10.0276 126.663 5.51039 121.586 3.98413 115.532C2.48249 109.552 2.87636 102.943 5.22729 94.616C9.84299 78.1969 22.7423 62.4697 39.765 52.4873C42.4852 50.8936 48.9964 47.4467 51.0642 46.5201C52.6028 45.8283 55.8645 44.5063 56.0615 44.494C56.1599 44.494 56.1353 44.8399 55.9753 45.5935Z" fill="#F8F1E4"/>
  <path d="M160.364 49.4112C160.364 61.2344 160.388 63.0628 160.548 63.7053C161.078 65.7314 162.222 66.9421 164.241 67.6216C164.992 67.8687 165.336 67.9058 167.01 67.9058C168.672 67.9058 169.041 67.8687 169.841 67.6216C170.838 67.3004 171.958 66.7692 172.402 66.4109L172.672 66.1761L172.303 65.6078L171.921 65.0395L170.851 65.5708C169.312 66.3491 168.512 66.5221 166.641 66.4603C165.238 66.4232 165.029 66.3862 164.302 66.0402C163.859 65.8302 163.33 65.509 163.121 65.336C162.579 64.8789 162.001 63.7053 161.853 62.7787C161.767 62.2474 161.718 57.4292 161.718 48.9046V35.846H161.041H160.364V49.4112Z" fill="#F8F1E4"/>
  <path d="M144.584 39.3178L142.394 42.6411H142.984H143.563L146.025 39.5278C147.379 37.8229 148.56 36.3156 148.646 36.1921C148.794 35.9821 148.757 35.9697 147.785 35.9821L146.763 35.9944L144.584 39.3178Z" fill="#F8F1E4"/>
  <path d="M125.752 48.1016C125.703 59.1465 125.703 59.27 125.432 60.2213C125.001 61.8027 124.386 62.8281 123.204 64.0141C121.493 65.719 119.672 66.485 117.272 66.485C114.896 66.485 112.865 65.6449 111.191 63.9647C109.431 62.198 108.828 60.5919 108.705 57.3674L108.631 55.4895H107.966H107.314V57.2068C107.314 59.6406 107.683 61.3208 108.557 62.8899C109.776 65.0642 111.745 66.6827 114.207 67.4981C115.302 67.8687 115.487 67.8934 117.099 67.9058C118.527 67.9058 118.982 67.8563 119.795 67.6216C123.34 66.5962 125.814 64.1129 126.786 60.6166C127.069 59.6283 127.069 59.5912 127.106 48.2869L127.143 36.9579H126.466H125.789L125.752 48.1016Z" fill="#F8F1E4"/>
  <path d="M175.023 37.7979C174.568 38.045 174.149 38.6998 174.149 39.1569C174.149 39.5523 174.445 40.1947 174.753 40.4665C174.913 40.6148 175.257 40.7259 175.676 40.763C176.291 40.8124 176.365 40.7877 176.796 40.3924C177.19 40.0341 177.263 39.8735 177.313 39.3546C177.374 38.601 177.054 38.0203 176.426 37.7485C175.86 37.5138 175.528 37.5261 175.023 37.7979Z" fill="#F8F1E4"/>
  <path d="M192.563 44.927C189.215 45.6188 186.372 47.6326 184.661 50.5235C183.516 52.4261 183.085 54.0322 183.085 56.3548C183.085 58.3933 183.344 59.5299 184.242 61.3584C185.683 64.3358 188.341 66.572 191.578 67.548C193.166 68.0174 195.603 68.1039 197.388 67.7333C200.834 67.0167 203.395 65.213 205.118 62.285L205.659 61.3584V64.4223V67.4738H206.336H207.013V56.3548V45.2358H206.336H205.659V48.2874V51.3513L205.118 50.4247C203.579 47.7932 200.982 45.8536 198.016 45.0999C196.662 44.7664 193.794 44.6675 192.563 44.927ZM197.265 46.4219C201.13 47.2126 204.318 50.1529 205.315 53.8716C205.647 55.0947 205.672 57.3803 205.364 58.6404C204.699 61.4078 202.607 63.9775 199.936 65.3118C198.41 66.0654 197.265 66.3619 195.566 66.4484C189.954 66.7202 185.227 62.9274 184.476 57.5532C184.07 54.5511 185.227 51.3636 187.517 49.1769C189.08 47.7067 191.148 46.6566 193.228 46.3107C194.028 46.1748 196.391 46.2366 197.265 46.4219Z" fill="#F8F1E4"/>
  <path d="M132.706 52.1782C132.756 59.6032 132.78 59.8008 133.42 61.7899C134.43 64.8662 136.411 66.7935 139.427 67.6336C140.732 67.9918 144.24 68.0165 145.532 67.683C147.034 67.2753 148.338 66.5711 149.372 65.5827C150.394 64.6067 150.837 64.0137 151.526 62.7165L151.982 61.8517L151.994 64.6561V67.473H152.671H153.348V56.354V45.235H152.683H152.006L151.957 51.684C151.908 58.6519 151.895 58.7507 151.194 60.6286C150.221 63.2477 148.129 65.348 145.717 66.1387C144.584 66.5093 142.012 66.5834 140.485 66.2993C136.707 65.5951 134.664 63.0748 134.159 58.5283C134.085 57.8612 134.023 54.7602 134.023 51.2886V45.235H133.334H132.657L132.706 52.1782Z" fill="#F8F1E4"/>
  <path d="M175.073 45.3833C175.036 45.4697 175.024 50.4609 175.036 56.4775L175.073 67.4112L175.787 67.4483L176.488 67.4854V56.354V45.235H175.811C175.381 45.235 175.11 45.2968 175.073 45.3833Z" fill="#F8F1E4"/>
  <path d="M111.499 88.6612V103.919H112.238H112.976V96.6298V89.3407H120.115H127.254V88.5994V87.8582H120.115H112.976V81.3721V74.886H121.592H130.208V74.1447V73.4035H120.854H111.499V88.6612Z" fill="#F8F1E4"/>
  <path d="M181.965 74.1074C180.698 74.4409 180.365 76.3064 181.448 77.023C182.482 77.7025 183.799 77.0601 183.947 75.7999C184.07 74.7868 182.975 73.8479 181.965 74.1074Z" fill="#F8F1E4"/>
  <path d="M141.889 81.3715C138.344 82.0509 135.23 84.3489 133.544 87.5116C130.922 92.441 132.338 98.6306 136.867 102.065C140.498 104.808 145.446 105.24 149.594 103.177C151.563 102.189 153.164 100.694 154.345 98.7294L154.825 97.9264V100.916V103.918H155.502H156.179V92.7993V81.6803H155.502H154.825V84.7319V87.7958L154.431 87.1163C153.631 85.6955 152.142 84.0647 150.85 83.1752C149.939 82.5575 148.523 81.9398 147.206 81.5938C145.692 81.2108 143.28 81.0997 141.889 81.3715ZM147.231 83.0887C150.197 83.9782 152.474 85.8561 153.828 88.5617C154.985 90.8844 155.108 93.8989 154.148 96.3203C153.582 97.7411 152.991 98.6183 151.822 99.7919C149.693 101.929 147.255 102.93 144.178 102.93C141.175 102.93 138.701 101.917 136.596 99.8413C132.03 95.332 132.744 88.1664 138.123 84.4971C139.316 83.6817 140.843 83.064 142.369 82.7922C142.689 82.7304 143.674 82.7057 144.548 82.7304C145.815 82.7551 146.369 82.8416 147.231 83.0887Z" fill="#F8F1E4"/>
  <path d="M174.519 81.2485C174.42 81.2733 173.928 81.3597 173.423 81.4339C170.149 81.9775 167.244 83.9789 165.484 86.9316L165.041 87.6729L165.016 84.7078L164.979 81.7427H164.302H163.626L163.589 92.8247L163.564 103.919H164.29H165.029L165.066 97.3958C165.103 90.9468 165.115 90.8727 165.398 90.0202C166.789 85.8444 170.346 83.1141 174.9 82.7064L175.934 82.6075V81.928V81.2485L175.319 81.2238C174.986 81.2238 174.617 81.2238 174.519 81.2485Z" fill="#F8F1E4"/>
  <path d="M199.419 81.3721C194.889 82.1998 191.271 85.4738 190.003 89.8967C189.757 90.7491 189.72 91.1568 189.732 92.8617C189.732 94.6408 189.769 94.9496 190.064 95.9256C190.717 98.0382 191.714 99.6814 193.252 101.152C194.323 102.177 194.939 102.622 196.12 103.202C197.868 104.08 199.443 104.45 201.413 104.45C203.751 104.438 206.016 103.857 207.801 102.782C208.995 102.078 210.583 100.497 211.457 99.1748L212.183 98.0629V100.991V103.919H212.921H213.66L213.635 92.8247L213.598 81.7427H212.921H212.244L212.207 84.6954L212.183 87.6482L211.74 86.9192C210.546 84.9178 209.093 83.5341 207.161 82.5458C204.872 81.3845 201.868 80.9273 199.419 81.3721ZM204.441 83.0152C207.432 83.8183 209.992 85.9309 211.272 88.6612C211.937 90.082 212.183 91.2186 212.183 92.8247C212.183 95.3573 211.346 97.5194 209.586 99.5084C208.453 100.806 206.225 102.152 204.428 102.622C203.271 102.931 200.797 103.005 199.567 102.77C194.619 101.831 191.012 97.6305 191.012 92.8C191.012 87.9941 194.606 83.8183 199.567 82.8423C200.773 82.6075 203.234 82.694 204.441 83.0152Z" fill="#F8F1E4"/>
  <path d="M227.753 81.3229C226.584 81.4711 224.848 81.9777 223.876 82.4595C222.829 82.9784 221.562 84.1767 221.131 85.0663C220.466 86.4253 220.392 87.846 220.934 89.2791C221.131 89.798 221.402 90.1934 221.956 90.7493C223.531 92.3183 225.783 93.0719 230.522 93.6032C234.916 94.085 236.96 94.9004 237.846 96.5312C238.166 97.1119 238.215 97.2972 238.203 98.2361C238.203 99.1256 238.154 99.3851 237.883 99.904C237.23 101.164 235.852 102.091 233.87 102.597C232.91 102.844 232.504 102.869 229.968 102.857C227.507 102.857 226.965 102.82 225.845 102.573C224.528 102.288 222.288 101.609 221.34 101.189L220.799 100.966L220.491 101.572L220.183 102.19L220.651 102.424C222.152 103.19 225.242 104.03 227.568 104.302C229.131 104.475 232.455 104.376 233.599 104.117C237.526 103.215 239.631 101.164 239.631 98.2361C239.631 95.5923 237.981 93.8503 234.523 92.8619C233.489 92.5531 232.381 92.3801 228.614 91.8859C223.974 91.2806 222.029 89.9463 222.029 87.3642C222.029 84.9427 223.888 83.3984 227.445 82.8548C230.978 82.3112 235.458 82.966 239.261 84.5721C239.409 84.6339 239.532 84.498 239.729 84.0903C239.877 83.7814 240 83.4973 240 83.4725C240 83.2255 236.652 82.0394 234.953 81.6935C232.615 81.2117 229.821 81.0634 227.753 81.3229Z" fill="#F8F1E4"/>
  <path d="M181.744 81.7551C181.695 81.8045 181.658 86.808 181.658 92.8864V103.919H182.396H183.135L183.11 92.8247L183.073 81.7427L182.458 81.7057C182.113 81.681 181.793 81.7057 181.744 81.7551Z" fill="#F8F1E4"/>
</svg>