<svg xmlns="http://www.w3.org/2000/svg" width="40" height="40" viewBox="0 0 40 40" fill="none">
  <g opacity="0.8">
    <path d="M19.1416 5V11.833H17.3047C15.4224 11.833 14.0364 12.1595 13.0654 12.7217C12.121 13.2685 11.3891 14.1515 10.8984 15.46C10.4575 16.7393 10.2178 18.4382 10.2178 20.5928V21.6514C10.4128 21.6424 10.6062 21.6377 10.7979 21.6377C12.7495 21.6377 14.4246 22.2692 15.7412 23.5654L16.001 23.8125C17.2557 25.0739 17.8398 26.7675 17.8398 28.7725C17.8398 30.7953 17.2036 32.5381 15.8926 33.9219L15.8916 33.9209C14.6163 35.3335 12.8758 36 10.7979 36C9.45547 35.9999 8.17995 35.6798 6.98438 35.0469C5.68822 34.3607 4.69147 33.1762 3.94727 31.6201C3.1716 29.998 2.82717 27.779 2.82715 25.0547V23.1025C2.82715 18.5198 3.38844 14.8552 4.58789 12.1895C5.77727 9.54639 7.50531 7.63923 9.80469 6.58691L10.2227 6.39355C12.3353 5.4546 14.766 5.00004 17.4902 5H19.1416ZM37.1729 5V11.833H35.3369C33.4546 11.833 32.0686 12.1595 31.0977 12.7217C30.1585 13.2654 29.4291 14.1413 28.9385 15.4375L28.8574 15.6826C28.4634 16.9343 28.25 18.5609 28.25 20.5928V21.6514C28.4451 21.6424 28.6384 21.6377 28.8301 21.6377C30.8012 21.6377 32.4909 22.281 33.8135 23.6035H33.8125C35.2188 24.8842 35.8721 26.654 35.8721 28.7725C35.8721 30.7953 35.2358 32.5381 33.9248 33.9219L33.9238 33.9209C32.6485 35.3336 30.908 36 28.8301 36C27.4877 36 26.2122 35.6798 25.0166 35.0469C23.7204 34.3607 22.7237 33.1762 21.9795 31.6201C21.2038 29.998 20.8594 27.779 20.8594 25.0547V23.1025C20.8594 18.5198 21.4206 14.8552 22.6201 12.1895C23.8094 9.54664 25.5369 7.6393 27.8359 6.58691C30.0441 5.5163 32.6166 5.00002 35.5225 5H37.1729Z" stroke="#7E482E" stroke-width="2"/>
  </g>
</svg>